<?xml version="1.0" encoding="UTF-8" standalone="no"?>
<!-- Created with Inkscape (http://www.inkscape.org/) -->

<svg
   width="32"
   height="32"
   viewBox="0 0 4 4"
   version="1.1"
   id="svg5"
   inkscape:version="1.2.2 (732a01da63, 2022-12-09)"
   sodipodi:docname="favicon.svg"
   inkscape:export-filename="favicon.png"
   inkscape:export-xdpi="95.976158"
   inkscape:export-ydpi="95.976158"
   xmlns:inkscape="http://www.inkscape.org/namespaces/inkscape"
   xmlns:sodipodi="http://sodipodi.sourceforge.net/DTD/sodipodi-0.dtd"
   xmlns="http://www.w3.org/2000/svg"
   xmlns:svg="http://www.w3.org/2000/svg"
   xmlns:rdf="http://www.w3.org/1999/02/22-rdf-syntax-ns#"
   xmlns:cc="http://creativecommons.org/ns#">
  <sodipodi:namedview
     id="namedview7"
     pagecolor="#505050"
     bordercolor="#eeeeee"
     borderopacity="1"
     inkscape:showpageshadow="false"
     inkscape:pageopacity="0"
     inkscape:pagecheckerboard="true"
     inkscape:deskcolor="#505050"
     inkscape:document-units="mm"
     showgrid="false"
     shape-rendering="auto"
     inkscape:zoom="22.627417"
     inkscape:cx="7.0268737"
     inkscape:cy="18.848815"
     inkscape:window-width="1718"
     inkscape:window-height="1360"
     inkscape:window-x="-7"
     inkscape:window-y="0"
     inkscape:window-maximized="0"
     inkscape:current-layer="layer1" />
  <defs
     id="defs2">
    <clipPath
       clipPathUnits="userSpaceOnUse"
       id="clipPath3209">
      <path
         id="path3211"
         style="display:inline;fill:#ffcc00;fill-opacity:1;fill-rule:nonzero;stroke:#000000;stroke-width:0;stroke-linecap:square;stroke-linejoin:round;stroke-dasharray:none;stroke-dashoffset:0;stroke-opacity:1;paint-order:normal"
         d="M 2,0 A 2,2 0 0 0 0,2 2,2 0 0 0 2,4 2,2 0 0 0 4,2 V 0 Z"
         inkscape:label="Drop" />
    </clipPath>
    <clipPath
       clipPathUnits="userSpaceOnUse"
       id="clipPath3593">
      <path
         id="path3595"
         style="display:inline;fill:#ffcc00;fill-opacity:1;fill-rule:nonzero;stroke:#000000;stroke-width:0;stroke-linecap:square;stroke-linejoin:round;stroke-dasharray:none;stroke-dashoffset:0;stroke-opacity:1;paint-order:normal"
         d="m 4.2426407,1.4142136 a 2,2 0 0 0 0,-2.8284271 2,2 0 0 0 -2.8284272,0 2,2 0 0 0 0,2.8284271 l 1.4142136,1.4142136 z"
         inkscape:label="Drop" />
    </clipPath>
    <clipPath
       clipPathUnits="userSpaceOnUse"
       id="clipPath3600">
      <path
         id="path3602"
         style="display:inline;fill:#ffcc00;fill-opacity:1;fill-rule:nonzero;stroke:#000000;stroke-width:0;stroke-linecap:square;stroke-linejoin:round;stroke-dasharray:none;stroke-dashoffset:0;stroke-opacity:1;paint-order:normal"
         d="m 4.2426407,1.4142136 a 2,2 0 0 0 0,-2.8284271 2,2 0 0 0 -2.8284272,0 2,2 0 0 0 0,2.8284271 l 1.4142136,1.4142136 z"
         inkscape:label="Drop" />
    </clipPath>
  </defs>
  <g
     inkscape:label="Ebene 1"
     inkscape:groupmode="layer"
     id="layer1">
    <g
       id="g3619"
       transform="matrix(0.86846612,0.23270479,-0.23270479,0.86846612,0.93032289,-0.23293495)">
      <path
         id="path3597"
         style="display:inline;fill:#ffcc00;fill-opacity:1;fill-rule:nonzero;stroke:#000000;stroke-width:0;stroke-linecap:square;stroke-linejoin:round;stroke-dasharray:none;stroke-dashoffset:0;stroke-opacity:1;paint-order:normal"
         d="M 2,0 A 2,2 0 0 0 0,2 2,2 0 0 0 2,4 2,2 0 0 0 4,2 V 0 Z"
         inkscape:label="Body"
         transform="rotate(180,2,2)" />
      <path
         id="path3197"
         style="display:inline;fill:none;fill-opacity:1;fill-rule:nonzero;stroke:#000000;stroke-width:0.125;stroke-linecap:square;stroke-linejoin:round;stroke-dasharray:none;stroke-dashoffset:0;stroke-opacity:1;paint-order:normal"
         d="M 2,0 A 2,2 0 0 0 0,2 2,2 0 0 0 2,4 2,2 0 0 0 4,2 V 0 Z"
         inkscape:label="Outline"
         clip-path="url(#clipPath3209)"
         transform="rotate(180,2,2)" />
      <path
         id="rect3269-3-5-8-1"
         style="display:inline;stroke-width:0.173339;stroke-linecap:square;stroke-linejoin:round"
         transform="rotate(45)"
         d="m -0.06271386,0.79397571 c 1.87612446,0.39507629 3.76034736,0.45811729 5.65728136,0 V 1.6502379 c -1.9521435,0.4136177 -3.8405439,0.4300664 -5.65728136,0 z"
         sodipodi:nodetypes="ccccc"
         clip-path="url(#clipPath3600)"
         inkscape:label="Left Stripe" />
      <path
         id="rect3269-3-5"
         style="display:inline;stroke-width:0.173339;stroke-linecap:square;stroke-linejoin:round"
         transform="rotate(45)"
         d="m -0.06271358,-0.91854858 c 1.90512808,0.31956619 3.79377808,0.36724339 5.65728138,0 v 0.85626214 c -1.8146181,0.36587514 -3.6968476,0.38403441 -5.65728138,0 z"
         sodipodi:nodetypes="ccccc"
         clip-path="url(#clipPath3593)"
         inkscape:label="Right Stripe" />
      <circle
         style="display:inline;fill:#000000;stroke:none;stroke-width:0.262931;stroke-linecap:square;stroke-linejoin:round;stroke-dasharray:none"
         id="path3547"
         cx="3.0891695"
         cy="0.7105363"
         r="0.16849029"
         inkscape:label="Left Eye" />
      <circle
         style="display:inline;fill:#000000;stroke:none;stroke-width:0.262931;stroke-linecap:square;stroke-linejoin:round;stroke-dasharray:none"
         id="path3547-2"
         cx="3.0915961"
         cy="0.57120949"
         r="0.16849029"
         inkscape:label="Right Eye"
         transform="rotate(15)" />
    </g>
  </g>
  <metadata
     id="metadata9">
    <rdf:RDF>
      <cc:Work
         rdf:about="">
        <cc:license
           rdf:resource="http://creativecommons.org/publicdomain/zero/1.0/" />
      </cc:Work>
      <cc:License
         rdf:about="http://creativecommons.org/publicdomain/zero/1.0/">
        <cc:permits
           rdf:resource="http://creativecommons.org/ns#Reproduction" />
        <cc:permits
           rdf:resource="http://creativecommons.org/ns#Distribution" />
        <cc:permits
           rdf:resource="http://creativecommons.org/ns#DerivativeWorks" />
      </cc:License>
    </rdf:RDF>
  </metadata>
</svg>
